PathFileType	4	(X/Y/Z)	C:/ViconProjects/foot_20160225/trc/P_3_test01_dynamic.trc
DataRate	CameraRate	NumFrames	NumMarkers	Units	OrigDataRate	OrigDataStartFrame	OrigNumFrames
120.000000	120.000000	4	39	mm	120.000000	1	1954
Frame#	Time	LFWT			RFWT			VBWT			LKNE			LANK			LMT5			LMT1			LHEL			LTOE			RKNE			RANK			RMT5			RMT1			RHEL			RTOE			T10			FHEAD			THEAD			RHEAD			LBSH			LELB			LOWR			RBSH			RELB			ROWR			LTHI			RTHI			LSHAN			RSHAN			LIHEL			LOHEL			RIHEL			ROHEL			LMT3			LNAVI			LCUNE			RMT3			RNAVI			RCUNE			
		X0	Y0	Z0	X1	Y1	Z1	X2	Y2	Z2	X3	Y3	Z3	X4	Y4	Z4	X5	Y5	Z5	X6	Y6	Z6	X7	Y7	Z7	X8	Y8	Z8	X9	Y9	Z9	X10	Y10	Z10	X11	Y11	Z11	X12	Y12	Z12	X13	Y13	Z13	X14	Y14	Z14	X15	Y15	Z15	X16	Y16	Z16	X17	Y17	Z17	X18	Y18	Z18	X19	Y19	Z19	X20	Y20	Z20	X21	Y21	Z21	X22	Y22	Z22	X23	Y23	Z23	X24	Y24	Z24	X25	Y25	Z25	X26	Y26	Z26	X27	Y27	Z27	X28	Y28	Z28	X29	Y29	Z29	X30	Y30	Z30	X31	Y31	Z31	X32	Y32	Z32	X33	Y33	Z33	X34	Y34	Z34	X35	Y35	Z35	X36	Y36	Z36	X37	Y37	Z37	X38	Y38	Z38	
1	0.008333	-957.676390	161.279690	944.325070	-959.962950	-127.787850	946.757260	-1184.708500	20.556330	958.893980	-992.368290	178.347460	468.448090	-1037.346070	168.640820	59.987400	-941.445010	207.166350	36.792290	-882.381410	140.981520	43.477190	-1094.667240	107.031870	40.747190	-845.903380	157.597900	32.483920	-999.755680	-169.566160	470.654140	-1028.700680	-191.730390	71.923970	-921.498720	-222.456410	33.733970	-874.041380	-144.724330	48.220920	-1088.068240	-126.913350	39.101600	-830.960940	-163.082340	34.586520	-1122.149290	74.275880	1299.472900	-698.661990	1.814660	1489.571780	-729.700810	-2.413180	1625.442500	-858.494510	4.294320	1642.039920	-944.516850	221.552640	1423.453490	-1062.168330	316.225220	1120.221800	-1030.728150	346.532290	867.820980	-941.580570	-184.983120	1406.331670	-1021.649050	-282.242860	1089.961670	-931.697270	-305.870700	848.039060	-909.796390	131.929900	628.575320	-925.983520	-116.694270	578.646000	-969.486690	106.901150	326.804500	-978.775630	-113.090420	235.964070	-1053.138180	79.066380	40.906130	-1072.723140	148.984390	40.145970	-1046.684450	-99.521300	42.487930	-1062.699580	-172.635420	39.687370	-896.320680	178.461700	39.418010	-972.261660	87.740570	46.725950	-1002.525880	185.987200	33.438130	-882.710140	-181.156200	40.202010	-971.964970	-105.360500	57.212430	-988.075870	-203.904040	32.962580
2	0.016667	-956.497920	162.602600	944.185490	-960.158750	-126.319460	946.624760	-1184.574340	22.614440	958.749760	-991.293150	179.068070	468.494380	-1038.146730	169.807140	60.803020	-941.456180	207.203020	36.823260	-882.422550	140.892900	43.393600	-1094.577760	107.104470	40.666470	-845.951050	157.591670	32.446720	-999.192570	-168.844240	470.723880	-1028.618160	-191.634690	72.040040	-921.462890	-222.351720	33.793610	-873.987920	-144.746770	48.222230	-1087.982300	-126.687300	39.093600	-831.094730	-163.188480	34.578470	-1121.980220	76.764460	1299.086550	-698.363280	5.120720	1489.958740	-729.646790	1.171880	1625.698850	-858.618410	7.442270	1642.319820	-944.728520	223.856140	1422.634520	-1062.450200	318.056430	1119.511470	-1031.002200	349.191650	867.299870	-941.394470	-182.189030	1406.846190	-1021.884340	-280.101960	1090.470700	-931.291380	-303.602840	848.487000	-909.356510	132.279820	628.843380	-925.232790	-115.773990	578.750060	-969.073730	107.434960	326.538020	-978.390690	-112.709180	236.039000	-1054.019290	78.819460	40.909510	-1072.884280	149.138170	40.533000	-1046.503050	-99.368100	42.454810	-1062.815310	-172.552700	39.811870	-896.312500	178.462810	39.381840	-972.280460	87.685860	46.529320	-1002.510440	185.975920	33.453720	-882.820070	-181.196850	40.328180	-971.816280	-105.329110	57.238420	-988.021790	-203.885100	32.984260
3	0.025000	-956.165340	164.177140	943.958800	-960.425290	-125.048810	946.650630	-1184.429320	24.542690	958.692630	-990.346500	179.688080	468.265200	-1038.050900	169.784030	60.740430	-941.438290	207.162280	36.851120	-882.354430	140.827530	43.269830	-1094.627320	107.124580	40.671870	-845.957820	157.594910	32.441410	-999.297670	-167.959590	470.788850	-1028.464720	-191.499760	72.241320	-921.356870	-222.186860	33.852860	-873.959170	-144.849560	48.286040	-1087.979860	-126.480610	39.125730	-831.070190	-163.323410	34.614890	-1122.260860	79.029010	1298.915410	-697.948790	8.260860	1490.169070	-730.259580	4.150030	1625.828490	-858.843020	10.439670	1642.517330	-944.748600	226.615650	1421.968260	-1062.322510	320.002560	1118.584230	-1031.362430	351.579900	866.256470	-941.955380	-180.161530	1407.165530	-1021.477110	-277.441250	1090.519530	-930.313480	-300.672760	848.803100	-908.505190	132.724410	629.070430	-924.841310	-115.206990	578.910400	-968.517460	107.923700	326.361600	-978.271120	-112.472430	235.986830	-1053.241090	79.068730	40.798500	-1072.820430	149.095050	40.513770	-1046.400760	-99.202220	42.397170	-1062.826170	-172.480240	39.881470	-896.265560	178.393970	39.291410	-972.362300	87.524280	46.413850	-1002.461610	185.965620	33.556260	-882.773800	-181.232850	40.372340	-971.816160	-105.270320	57.309280	-988.037840	-203.778260	33.188020
4	0.033333	-955.914860	165.133940	944.035220	-960.754460	-123.317070	946.491520	-1184.482300	26.389830	958.515500	-989.588070	180.433730	468.214940	-1037.904910	169.830730	60.689380	-941.319090	207.051360	36.820820	-882.278750	140.758640	43.198460	-1094.617920	107.133940	40.682240	-845.924010	157.554260	32.476610	-998.961060	-167.278170	470.849550	-1029.094850	-191.679630	72.843890	-921.371460	-222.014270	33.986220	-874.002080	-144.843480	48.353880	-1088.003660	-126.213680	39.278260	-831.215640	-163.543950	34.700390	-1122.319580	81.313230	1298.629880	-698.722230	10.703430	1490.405880	-730.444090	7.450700	1626.222660	-859.328670	13.702830	1642.896850	-945.198550	229.153440	1420.987060	-1061.850590	321.793880	1117.541140	-1031.164310	353.319000	865.819950	-941.941830	-177.499160	1407.784420	-1021.768070	-275.510830	1090.997190	-929.868290	-297.798860	849.323490	-907.772400	132.949310	629.265930	-924.513310	-114.162820	578.750790	-968.041260	108.219190	326.245820	-978.167240	-112.274420	235.952500	-1054.041020	78.797430	40.855270	-1072.848270	149.137360	40.548050	-1046.169680	-99.023900	42.382940	-1062.956180	-172.567290	40.017920	-896.165160	178.330870	39.364580	-972.422060	87.406160	46.258620	-1002.456120	185.922070	33.591010	-882.828060	-181.249910	40.460550	-971.672550	-105.184960	57.405450	-988.015500	-203.616490	33.392940
